<svg width="370" height="260" viewBox="0 0 370 260" fill="none" xmlns="http://www.w3.org/2000/svg">
<rect width="370" height="260" fill="white"/>
<g opacity="0.3">
<path d="M344.283 15.6484V30.1884M344.283 36.6508V51.1908M334.61 33.8234H342.348M346.217 33.8234H353.955" stroke="#93C5FD" stroke-width="1.612"/>
<path d="M344.283 15.6484V30.1884M344.283 36.6508V51.1908M334.61 33.8234H342.348M346.217 33.8234H353.955" stroke="#93C5FD" stroke-width="1.612"/>
<path d="M344.283 69.2461V83.7861M344.283 90.2484V104.788M334.61 87.4211H342.348M346.217 87.4211H353.955" stroke="#EFF6FF" stroke-width="1.612"/>
<path opacity="0.6" d="M344.283 122.844V137.384M344.283 143.846V158.386M334.61 141.019H342.348M346.217 141.019H353.955" stroke="#93C5FD" stroke-width="1.612"/>
<path opacity="0.6" d="M343.5 182.963V196.751M343.5 202.879V216.667M334 200.198H341.6M345.4 200.198H353" stroke="#93C5FD" stroke-width="1.612"/>
<path opacity="0.6" d="M311.673 15.6484V30.1889M311.673 36.6513V51.1913M302 33.824H309.738M313.607 33.824H321.345" stroke="#93C5FD" stroke-width="1.612"/>
</g>
</svg>
