<svg width="42" height="24" viewBox="0 0 42 24" fill="none" xmlns="http://www.w3.org/2000/svg">
<path d="M0 6C0 2.68629 2.68629 0 6 0H36C39.3137 0 42 2.68629 42 6V18C42 21.3137 39.3137 24 36 24H6C2.68629 24 0 21.3137 0 18V6Z" fill="#1FAEEB"/>
<path d="M0 6C0 2.68629 2.68629 0 6 0H36C39.3137 0 42 2.68629 42 6V18C42 21.3137 39.3137 24 36 24H6C2.68629 24 0 21.3137 0 18V6Z" fill="url(#paint0_radial_298_289)" fill-opacity="0.2"/>
<path d="M0 6C0 2.68629 2.68629 0 6 0H36C39.3137 0 42 2.68629 42 6V18C42 21.3137 39.3137 24 36 24H6C2.68629 24 0 21.3137 0 18V6Z" fill="url(#paint1_linear_298_289)"/>
<path d="M6.88494 17V6.81818H10.902C11.6742 6.81818 12.3321 6.96567 12.8757 7.26065C13.4193 7.55232 13.8336 7.95833 14.1186 8.47869C14.407 8.99574 14.5511 9.59233 14.5511 10.2685C14.5511 10.9446 14.4053 11.5412 14.1136 12.0582C13.822 12.5753 13.3994 12.978 12.8459 13.2663C12.2957 13.5547 11.6295 13.6989 10.8473 13.6989H8.28693V11.9737H10.4993C10.9136 11.9737 11.255 11.9025 11.5234 11.7599C11.7952 11.6141 11.9974 11.4136 12.13 11.1584C12.2659 10.8999 12.3338 10.6032 12.3338 10.2685C12.3338 9.9304 12.2659 9.63542 12.13 9.38352C11.9974 9.12831 11.7952 8.93111 11.5234 8.7919C11.2517 8.64938 10.907 8.57812 10.4893 8.57812H9.03764V17H6.88494ZM15.9494 17V6.81818H19.9664C20.7354 6.81818 21.3916 6.95573 21.9352 7.23082C22.4821 7.5026 22.898 7.88873 23.1831 8.3892C23.4714 8.88636 23.6156 9.47135 23.6156 10.1442C23.6156 10.8203 23.4698 11.402 23.1781 11.8892C22.8864 12.3731 22.4638 12.7443 21.9103 13.0028C21.3601 13.2614 20.694 13.3906 19.9118 13.3906H17.2221V11.6605H19.5637C19.9747 11.6605 20.3161 11.6042 20.5879 11.4915C20.8597 11.3788 21.0618 11.2098 21.1944 10.9844C21.3303 10.759 21.3983 10.4789 21.3983 10.1442C21.3983 9.80611 21.3303 9.52107 21.1944 9.28906C21.0618 9.05705 20.858 8.88139 20.5829 8.76207C20.3111 8.63944 19.9681 8.57812 19.5538 8.57812H18.1021V17H15.9494ZM21.448 12.3665L23.9785 17H21.6021L19.1262 12.3665H21.448ZM34.4934 11.9091C34.4934 13.0194 34.283 13.964 33.862 14.7429C33.4444 15.5218 32.8743 16.1167 32.1518 16.5277C31.4326 16.9354 30.6239 17.1392 29.7257 17.1392C28.8208 17.1392 28.0088 16.9337 27.2896 16.5227C26.5704 16.1117 26.002 15.5168 25.5843 14.7379C25.1667 13.959 24.9579 13.0161 24.9579 11.9091C24.9579 10.7988 25.1667 9.85417 25.5843 9.07528C26.002 8.2964 26.5704 7.70312 27.2896 7.29545C28.0088 6.88447 28.8208 6.67898 29.7257 6.67898C30.6239 6.67898 31.4326 6.88447 32.1518 7.29545C32.8743 7.70312 33.4444 8.2964 33.862 9.07528C34.283 9.85417 34.4934 10.7988 34.4934 11.9091ZM32.3109 11.9091C32.3109 11.1899 32.2032 10.5833 31.9877 10.0895C31.7756 9.59564 31.4757 9.22112 31.0879 8.96591C30.7001 8.7107 30.246 8.5831 29.7257 8.5831C29.2053 8.5831 28.7512 8.7107 28.3635 8.96591C27.9757 9.22112 27.6741 9.59564 27.4586 10.0895C27.2465 10.5833 27.1404 11.1899 27.1404 11.9091C27.1404 12.6283 27.2465 13.2348 27.4586 13.7287C27.6741 14.2225 27.9757 14.5971 28.3635 14.8523C28.7512 15.1075 29.2053 15.2351 29.7257 15.2351C30.246 15.2351 30.7001 15.1075 31.0879 14.8523C31.4757 14.5971 31.7756 14.2225 31.9877 13.7287C32.2032 13.2348 32.3109 12.6283 32.3109 11.9091Z" fill="#F9FAFB"/>
<defs>
<radialGradient id="paint0_radial_298_289" cx="0" cy="0" r="1" gradientUnits="userSpaceOnUse" gradientTransform="translate(21 12) rotate(90) scale(12 21)">
<stop/>
<stop offset="1" stop-opacity="0"/>
</radialGradient>
<linearGradient id="paint1_linear_298_289" x1="21" y1="0" x2="21" y2="24" gradientUnits="userSpaceOnUse">
<stop stop-color="#0088FF"/>
<stop offset="1" stop-color="#93C5FD" stop-opacity="0"/>
</linearGradient>
</defs>
</svg>
