<svg width="32" height="32" viewBox="0 0 32 32" fill="none" xmlns="http://www.w3.org/2000/svg">
<path d="M17.1954 2.07568C16.9707 1.62088 16.5073 1.33301 16 1.33301C15.4927 1.33301 15.0294 1.62088 14.8047 2.07568L10.9948 9.78602L2.47407 11.0301C1.97182 11.1035 1.55476 11.4556 1.3983 11.9385C1.24184 12.4213 1.3731 12.9512 1.7369 13.3051L7.90049 19.3021L6.44594 27.7741C6.36006 28.2742 6.56557 28.7798 6.97607 29.0782C7.38656 29.3766 7.93086 29.4161 8.38013 29.18L16 25.177L23.62 29.18C24.0692 29.4161 24.6135 29.3766 25.024 29.0782C25.4345 28.7798 25.64 28.2742 25.5541 27.7741L24.0996 19.3021L30.2632 13.3051C30.627 12.9512 30.7582 12.4213 30.6018 11.9385C30.4453 11.4556 30.0283 11.1035 29.526 11.0301L21.0053 9.78602L17.1954 2.07568Z" fill="#FDE047"/>
</svg>
