<svg width="16" height="16" viewBox="0 0 16 16" fill="none" xmlns="http://www.w3.org/2000/svg">
<g clip-path="url(#clip0_56522_5727)">
<path d="M6 4.66699C6.2788 4.66699 6.52807 4.84018 6.625 5.10156L7.7793 8.2207L10.8984 9.375C11.1598 9.47193 11.333 9.7212 11.333 10C11.333 10.2788 11.1598 10.5281 10.8984 10.625L7.7793 11.7793L6.625 14.8984C6.52807 15.1598 6.2788 15.333 6 15.333C5.7212 15.333 5.47193 15.1598 5.375 14.8984L4.2207 11.7793L1.10156 10.625C0.840184 10.5281 0.666992 10.2788 0.666992 10C0.666992 9.7212 0.840184 9.47193 1.10156 9.375L4.2207 8.2207L5.375 5.10156C5.47193 4.84018 5.7212 4.66699 6 4.66699ZM12 0.666992C12.2788 0.666992 12.5281 0.840184 12.625 1.10156L12.75 1.43848C13.0606 2.27778 13.7222 2.93939 14.5615 3.25L14.8984 3.375C15.1598 3.47193 15.333 3.7212 15.333 4C15.333 4.2788 15.1598 4.52807 14.8984 4.625L14.5615 4.75C13.7222 5.06061 13.0606 5.72222 12.75 6.56152L12.625 6.89844C12.5281 7.15982 12.2788 7.33301 12 7.33301C11.7212 7.33301 11.4719 7.15982 11.375 6.89844L11.25 6.56152C10.9394 5.72222 10.2778 5.06061 9.43848 4.75L9.10156 4.625C8.84018 4.52807 8.66699 4.2788 8.66699 4C8.66699 3.7212 8.84018 3.47193 9.10156 3.375L9.43848 3.25C10.2778 2.93939 10.9394 2.27778 11.25 1.43848L11.375 1.10156C11.4719 0.840184 11.7212 0.666992 12 0.666992Z" fill="#F9FAFB"/>
</g>
<defs>
<clipPath id="clip0_56522_5727">
<rect width="16" height="16" fill="white"/>
</clipPath>
</defs>
</svg>
